
<!-- Generator: visioncortex VTracer 0.6.4 -->
<svg version="1.1" xmlns="http://www.w3.org/2000/svg" viewBox="0 0 612 408" preserveAspectRatio="xMidYMid meet">
<path d="M0 0 C0.99 0.66 1.98 1.32 3 2 C3 2.66 3 3.32 3 4 C3.66 4 4.32 4 5 4 C6.727 5.969 6.727 5.969 8.625 8.5 C9.257 9.335 9.888 10.171 10.539 11.031 C11.262 12.006 11.262 12.006 12 13 C18.95 11.189 25.812 9.146 32.659 6.982 C39.137 4.941 45.648 3.025 52.168 1.121 C55.179 0.24 58.185 -0.653 61.188 -1.562 C62.792 -2.042 64.396 -2.521 66 -3 C67.168 -3.353 68.336 -3.706 69.539 -4.07 C70.784 -4.439 72.03 -4.808 73.312 -5.188 C75.039 -5.704 75.039 -5.704 76.801 -6.23 C80 -7 80 -7 85 -7 C85 14.45 85 35.9 85 58 C86.98 58.66 88.96 59.32 91 60 C93.773 61.656 93.773 61.656 96.375 63.5 C97.249 64.108 98.123 64.717 99.023 65.344 C99.676 65.89 100.328 66.437 101 67 C101 67.66 101 68.32 101 69 C101.568 69.222 102.137 69.443 102.723 69.672 C112.632 75.451 116.655 88.65 119.54 98.922 C122.757 113.448 119.259 128.856 113 142 C112.34 142 111.68 142 111 142 C110.814 142.681 110.629 143.361 110.438 144.062 C108.401 148.223 105.38 150.892 102 154 C101.092 154.866 100.185 155.732 99.25 156.625 C85.462 167.714 67.935 167.411 51.25 167.188 C49.281 167.172 47.313 167.159 45.344 167.146 C40.562 167.114 35.781 167.062 31 167 C30.34 168.32 29.68 169.64 29 171 C28.34 171 27.68 171 27 171 C26.67 171.99 26.34 172.98 26 174 C6.424 192.865 -19.216 199.901 -45.723 199.488 C-60.512 198.747 -78.708 193.876 -91.312 185.875 C-93.941 184.216 -96.039 182.987 -99 182 C-99 181.34 -99 180.68 -99 180 C-99.574 179.752 -100.147 179.505 -100.738 179.25 C-103.345 177.809 -105.105 176.125 -107.188 174 C-107.882 173.299 -108.577 172.597 -109.293 171.875 C-111 170 -111 170 -112 168 C-112.613 168.001 -113.226 168.002 -113.857 168.003 C-132.074 167.925 -146.515 165.854 -161 154 C-161.717 153.444 -162.433 152.889 -163.172 152.316 C-173.261 144.105 -179.434 131.892 -181 119 C-181.581 109.838 -181.152 101.652 -178 93 C-177.733 92.245 -177.466 91.489 -177.191 90.711 C-171.495 76.382 -160.748 66.683 -146.996 60.254 C-137.553 56.302 -129.212 55.597 -119 56 C-119.058 55.426 -119.116 54.853 -119.176 54.262 C-120.13 36.299 -112.487 19.388 -101 6 C-98.5 3.312 -98.5 3.312 -96 1 C-95.501 0.531 -95.002 0.062 -94.488 -0.422 C-67.356 -24.961 -27.071 -23.026 0 0 Z " fill="#C920FD" transform="translate(342,104)"/>
<path d="M0 0 C2.453 2.254 2.453 2.254 4 4 C0.664 2.816 -2.271 1.284 -5.312 -0.5 C-9.51 -2.877 -13.253 -4.152 -18 -5 C-18.33 -4.67 -18.66 -4.34 -19 -4 C-17.02 -3.67 -15.04 -3.34 -13 -3 C-13 -2.34 -13 -1.68 -13 -1 C-14.643 0.038 -16.312 1.036 -18 2 C-20.484 4.484 -20.328 5.568 -20.562 9 C-20.905 13.81 -20.905 13.81 -22 16 C-22.278 19.602 -22.447 23.204 -22.621 26.812 C-23 30 -23 30 -25 32 C-25.66 31.67 -26.32 31.34 -27 31 C-27.043 31.757 -27.085 32.513 -27.129 33.293 C-28 36 -28 36 -30.59 37.738 C-31.695 38.258 -32.799 38.777 -33.938 39.312 C-39.529 42.115 -44.142 45.235 -48.879 49.301 C-51 51 -51 51 -53.152 51.98 C-55.528 53.291 -55.918 54.551 -57 57 C-57.954 58.289 -58.935 59.56 -59.938 60.812 C-65.413 67.998 -67.139 74.945 -67.188 83.938 C-67.202 85.122 -67.216 86.307 -67.23 87.527 C-66.997 91.04 -66.187 93.706 -65 97 C-64.786 98.431 -64.612 99.87 -64.5 101.312 C-64.335 102.529 -64.17 103.746 -64 105 C-63.34 105.33 -62.68 105.66 -62 106 C-62 106.99 -62 107.98 -62 109 C-61.01 109 -60.02 109 -59 109 C-59 109.66 -59 110.32 -59 111 C-60.485 111.495 -60.485 111.495 -62 112 C-66.433 118.519 -67.038 128.832 -68.588 136.461 C-68.756 137.276 -68.924 138.09 -69.098 138.93 C-69.247 139.664 -69.397 140.399 -69.551 141.156 C-70 143 -70 143 -71 145 C-71.66 145 -72.32 145 -73 145 C-73 145.66 -73 146.32 -73 147 C-72.34 147 -71.68 147 -71 147 C-71 148.32 -71 149.64 -71 151 C-74.728 152.417 -77.093 153.246 -81 152.188 C-88.54 146.689 -92.803 138.618 -96 130 C-96 129.34 -96 128.68 -96 128 C-102.727 133.382 -106.287 142.656 -107.238 151.121 C-107.449 157.682 -105.979 163.117 -103.875 169.312 C-103 172 -103 172 -103 174 C-122.126 174.98 -136.732 173.495 -152 161 C-152.717 160.444 -153.433 159.889 -154.172 159.316 C-164.261 151.105 -170.434 138.892 -172 126 C-172.581 116.838 -172.152 108.652 -169 100 C-168.733 99.245 -168.466 98.489 -168.191 97.711 C-162.495 83.382 -151.748 73.683 -137.996 67.254 C-128.553 63.302 -120.212 62.597 -110 63 C-110.058 62.426 -110.116 61.853 -110.176 61.262 C-111.13 43.299 -103.487 26.388 -92 13 C-89.5 10.312 -89.5 10.312 -87 8 C-86.501 7.531 -86.002 7.062 -85.488 6.578 C-61.733 -14.907 -26.759 -16.363 0 0 Z M4 4 C6 5 6 5 6 5 Z " fill="#FB0B9C" transform="translate(333,97)"/>
<path d="M0 0 C9.561 2.821 17.799 7.399 26 13 C27.319 13.694 28.646 14.375 30 15 C30 15.66 30 16.32 30 17 C30.66 17 31.32 17 32 17 C35.602 20.778 37.071 22.842 38 28 C25 32.333 12 36.667 -1 41 C10.128 45.82 21.404 49.971 32.912 53.802 C38.884 55.815 44.445 58.017 50 61 C45.643 67.123 40.774 72.622 35.668 78.117 C33.532 80.425 31.436 82.751 29.375 85.125 C28.841 85.737 28.308 86.35 27.758 86.98 C26.397 88.544 25.038 90.11 23.68 91.676 C22.878 92.587 22.076 93.499 21.25 94.438 C20.513 95.282 19.775 96.126 19.016 96.996 C17 99 17 99 14 100 C10.681 99.037 7.577 97.498 4.438 96.062 C3.533 95.65 2.629 95.238 1.697 94.813 C-4.973 91.676 -10.796 88.299 -16 83 C-16.623 82.376 -17.245 81.752 -17.887 81.109 C-21.743 76.687 -23.008 72.585 -23.234 66.742 C-22.44 57.449 -16.311 51.271 -10 45 C-24.398 52.347 -38.444 61.919 -43.812 77.875 C-46.259 87.071 -45.439 94.557 -41 103 C-39.719 104.707 -38.405 106.394 -37 108 C-37 108.66 -37 109.32 -37 110 C-36.34 110 -35.68 110 -35 110 C-35 110.66 -35 111.32 -35 112 C-34.487 112.238 -33.974 112.477 -33.445 112.723 C-30.851 114.078 -28.406 115.62 -25.926 117.172 C-17.911 122.118 -9.718 125.948 -1 129.5 C34.581 144.098 34.581 144.098 42.188 161 C44.63 170.019 44.304 180.549 40.188 188.996 C36.4 195.387 31.438 199.433 25 203 C24.34 203 23.68 203 23 203 C22.67 203.99 22.34 204.98 22 206 C-3.143 217.027 -30.452 212.41 -55.426 203.465 C-58.626 202.153 -61.4 200.724 -64.312 198.875 C-66.941 197.216 -69.039 195.987 -72 195 C-72 194.34 -72 193.68 -72 193 C-72.579 192.738 -73.158 192.477 -73.754 192.207 C-81.68 187.948 -85.184 181.276 -88.09 173.051 C-91.285 162.342 -90.504 153.257 -86 143 C-84.234 139.816 -82.417 136.735 -80 134 C-79.34 134 -78.68 134 -78 134 C-77.481 135.085 -76.961 136.171 -76.426 137.289 C-75.722 138.735 -75.017 140.18 -74.312 141.625 C-73.973 142.338 -73.633 143.051 -73.283 143.785 C-70.564 149.325 -67.799 154.63 -62.062 157.438 C-58.717 158.052 -56.291 157.784 -53 157 C-53 155.68 -53 154.36 -53 153 C-53.66 153 -54.32 153 -55 153 C-55 152.34 -55 151.68 -55 151 C-54.34 151 -53.68 151 -53 151 C-52.895 150.411 -52.789 149.822 -52.68 149.215 C-52.19 146.496 -51.689 143.779 -51.188 141.062 C-50.939 139.673 -50.939 139.673 -50.686 138.256 C-49.3 130.805 -47.507 123.752 -44 117 C-43.01 117 -42.02 117 -41 117 C-41 116.34 -41 115.68 -41 115 C-41.99 115 -42.98 115 -44 115 C-44 114.01 -44 113.02 -44 112 C-44.99 111.67 -45.98 111.34 -47 111 C-47.133 110.325 -47.266 109.649 -47.402 108.953 C-47.579 108.061 -47.756 107.169 -47.938 106.25 C-48.112 105.368 -48.286 104.487 -48.465 103.578 C-48.946 101.097 -48.946 101.097 -49.551 99.086 C-51.608 89.535 -50.458 79.043 -45.605 70.562 C-44.14 68.307 -42.626 66.142 -41 64 C-40.41 63.199 -39.819 62.399 -39.211 61.574 C-36.604 58.538 -33.703 56.077 -30.562 53.625 C-29.956 53.146 -29.349 52.667 -28.724 52.174 C-23.597 48.233 -18.305 45.297 -12.449 42.535 C-9.829 41.262 -9.829 41.262 -9.332 38.871 C-9.222 38.254 -9.113 37.636 -9 37 C-8.01 36.67 -7.02 36.34 -6 36 C-5.939 35.013 -5.879 34.025 -5.816 33.008 C-5.691 31.086 -5.691 31.086 -5.562 29.125 C-5.441 27.211 -5.441 27.211 -5.316 25.258 C-5 22 -5 22 -4 20 C-3.898 18.397 -3.817 16.792 -3.75 15.188 C-3.397 11.258 -3.11 10.145 -0.625 6.875 C2 5 2 5 5 5 C5 4.34 5 3.68 5 3 C2.36 3 -0.28 3 -3 3 C-2.01 2.01 -1.02 1.02 0 0 Z " fill="#D004AF" transform="translate(315,91)"/>
<path d="M0 0 C5.503 1.101 6.387 2.016 10 6 C13.272 9.385 16.782 12.398 20.391 15.414 C21.187 16.199 21.187 16.199 22 17 C22 17.66 22 18.32 22 19 C22.66 19 23.32 19 24 19 C24.471 19.999 24.941 20.998 25.426 22.027 C26.054 23.331 26.683 24.634 27.312 25.938 C27.776 26.927 27.776 26.927 28.248 27.936 C29.09 29.663 30.039 31.336 31 33 C32.485 33.495 32.485 33.495 34 34 C35.975 39.872 36.386 45.462 36.375 51.625 C36.374 52.933 36.374 52.933 36.372 54.268 C36.187 64.524 33.404 73.752 29 83 C28.34 83 27.68 83 27 83 C26.814 83.681 26.629 84.361 26.438 85.062 C24.401 89.223 21.38 91.892 18 95 C17.092 95.866 16.185 96.733 15.25 97.625 C1.462 108.714 -16.065 108.411 -32.75 108.188 C-34.719 108.172 -36.687 108.159 -38.656 108.146 C-43.438 108.114 -48.219 108.062 -53 108 C-52.523 107.268 -52.046 106.537 -51.554 105.783 C-50.927 104.81 -50.299 103.838 -49.652 102.836 C-49.031 101.877 -48.41 100.919 -47.769 99.931 C-42.109 90.554 -40.159 80.82 -42.695 70.047 C-47.776 54.763 -58.012 46.342 -71.907 39.042 C-76.59 36.71 -81.399 34.638 -86.222 32.614 C-91.899 30.202 -91.899 30.202 -93 28 C-92.34 28 -91.68 28 -91 28 C-90.67 27.34 -90.34 26.68 -90 26 C-88.35 26.33 -86.7 26.66 -85 27 C-85 27.66 -85 28.32 -85 29 C-84.434 29.121 -83.868 29.242 -83.285 29.367 C-82.552 29.535 -81.818 29.702 -81.062 29.875 C-80.332 30.037 -79.601 30.2 -78.848 30.367 C-77 31 -77 31 -76 33 C-73.583 33.926 -71.126 34.569 -68.633 35.262 C-66.481 35.865 -64.359 36.574 -62.25 37.312 C-58.27 38.154 -56.698 37.646 -53 36 C-51.034 34.158 -49.349 32.415 -47.625 30.375 C-46.668 29.285 -45.71 28.197 -44.75 27.109 C-44.285 26.578 -43.819 26.046 -43.34 25.498 C-41.514 23.457 -39.583 21.538 -37.625 19.625 C-34.519 16.57 -31.721 13.401 -29 10 C-26.133 11.285 -24.024 12.571 -22 15 C-22 15.66 -22 16.32 -22 17 C-21.34 17 -20.68 17 -20 17 C-20 17.66 -20 18.32 -20 19 C-19.34 19 -18.68 19 -18 19 C-16.52 20.504 -16.52 20.504 -14.812 22.562 C-11.887 26.013 -8.836 29.223 -5.578 32.359 C-4 34 -4 34 -1 38 C-0.67 25.46 -0.34 12.92 0 0 Z " fill="#7503E0" transform="translate(426,163)"/>
<path d="M0 0 C0.99 0.33 1.98 0.66 3 1 C2.408 1.424 1.817 1.848 1.207 2.285 C-5.523 7.281 -11.354 12.439 -13 21 C-13.269 27.73 -12.445 32.962 -7.941 38.113 C1.595 47.381 12.999 51.758 25.116 56.795 C68.452 74.901 68.452 74.901 77.273 95.957 C80.497 105.02 79.902 114.594 76.273 123.434 C74.221 127.571 71.695 131.262 69 135 C68.246 136.185 67.495 137.372 66.75 138.562 C65.884 139.769 65.884 139.769 65 141 C64.34 141 63.68 141 63 141 C62.67 141.99 62.34 142.98 62 144 C53.76 151.941 43.158 159.221 32 162 C32 161.34 32 160.68 32 160 C33.645 158.746 33.645 158.746 35.812 157.438 C36.52 157.003 37.228 156.569 37.957 156.121 C40 155 40 155 43 154 C44.083 152.158 44.083 152.158 45 150 C46.266 147.981 47.569 145.99 48.879 144 C52.817 136.974 52.224 125.62 50.199 117.977 C42.425 101.04 23.882 94.04 7.804 87.309 C-17.187 76.839 -17.187 76.839 -26 69 C-26 68.34 -26 67.68 -26 67 C-26.66 67 -27.32 67 -28 67 C-34.013 60.853 -37.054 53.601 -37.375 45.062 C-36.859 31.705 -29.824 22.145 -20.461 13.102 C-16.29 9.54 -11.724 6.762 -7 4 C-6.291 3.553 -5.582 3.105 -4.852 2.645 C-3 1.5 -3 1.5 0 0 Z " fill="#DF3BFC" transform="translate(306,134)"/>
<path d="M0 0 C1.855 0.553 3.711 1.107 5.566 1.66 C8.158 2.149 8.158 2.149 11.348 1.414 C23.69 0.015 40.544 11.892 49.898 19.293 C56.928 25.891 61.1 32.541 61.536 42.259 C61.645 51.519 60.038 58.487 54.812 66.25 C45.864 75 45.864 75 41 75 C40.505 76.485 40.505 76.485 40 78 C37.314 79.178 34.784 80.132 32 81 C30.762 81.392 29.525 81.784 28.25 82.188 C22.914 83.479 17.451 83.164 12 83 C12.66 82.546 13.32 82.092 14 81.625 C14.66 81.089 15.32 80.553 16 80 C16 79.34 16 78.68 16 78 C16.66 78 17.32 78 18 78 C18.182 76.679 18.182 76.679 18.367 75.332 C18.535 74.171 18.702 73.009 18.875 71.812 C19.119 70.09 19.119 70.09 19.367 68.332 C19.944 65.297 20.813 62.833 22 60 C22.381 57.674 22.725 55.341 23 53 C24.65 52.34 26.3 51.68 28 51 C27.398 51.021 26.795 51.042 26.174 51.063 C10.182 51.543 -3.828 50.255 -19 45 C-19 44.34 -19 43.68 -19 43 C-16.03 43.33 -13.06 43.66 -10 44 C-9.67 43.01 -9.34 42.02 -9 41 C-10.32 41 -11.64 41 -13 41 C-13 40.34 -13 39.68 -13 39 C-11.515 38.505 -11.515 38.505 -10 38 C-3.765 27.767 -1.545 16.841 -2 5 C-0.02 4.34 1.96 3.68 4 3 C2.68 2.34 1.36 1.68 0 1 C0 0.67 0 0.34 0 0 Z M-2 2 C-1.34 2 -0.68 2 0 2 C-0.33 2.66 -0.66 3.32 -1 4 C-1.33 3.34 -1.66 2.68 -2 2 Z " fill="#5D02BA" transform="translate(297,219)"/>
<path d="M0 0 C0.99 0.99 0.99 0.99 2 2 C1.67 2.33 1.34 2.66 1 3 C3.97 3.495 3.97 3.495 7 4 C7 4.66 7 5.32 7 6 C5.357 7.038 3.688 8.036 2 9 C-0.484 11.484 -0.328 12.568 -0.562 16 C-0.905 20.81 -0.905 20.81 -2 23 C-2.278 26.602 -2.447 30.204 -2.621 33.812 C-3 37 -3 37 -5 39 C-5.66 38.67 -6.32 38.34 -7 38 C-7.043 38.757 -7.085 39.513 -7.129 40.293 C-8 43 -8 43 -10.59 44.738 C-11.695 45.258 -12.799 45.777 -13.938 46.312 C-19.529 49.115 -24.142 52.235 -28.879 56.301 C-31 58 -31 58 -33.152 58.98 C-35.528 60.291 -35.918 61.551 -37 64 C-37.954 65.289 -38.935 66.56 -39.938 67.812 C-45.413 74.998 -47.139 81.945 -47.188 90.938 C-47.202 92.122 -47.216 93.307 -47.23 94.527 C-46.997 98.04 -46.187 100.706 -45 104 C-44.786 105.431 -44.612 106.87 -44.5 108.312 C-44.252 110.138 -44.252 110.138 -44 112 C-43.01 112.495 -43.01 112.495 -42 113 C-42 113.99 -42 114.98 -42 116 C-41.01 116 -40.02 116 -39 116 C-39 116.66 -39 117.32 -39 118 C-39.99 118.33 -40.98 118.66 -42 119 C-46.433 125.519 -47.038 135.832 -48.588 143.461 C-48.756 144.276 -48.924 145.09 -49.098 145.93 C-49.247 146.664 -49.397 147.399 -49.551 148.156 C-50 150 -50 150 -51 152 C-51.66 152 -52.32 152 -53 152 C-53 152.66 -53 153.32 -53 154 C-52.34 154 -51.68 154 -51 154 C-51 155.32 -51 156.64 -51 158 C-54.728 159.417 -57.093 160.246 -61 159.188 C-68.54 153.689 -72.803 145.618 -76 137 C-76 136.34 -76 135.68 -76 135 C-77.32 135.99 -78.64 136.98 -80 138 C-79.505 136.02 -79.505 136.02 -79 134 C-77.68 133.67 -76.36 133.34 -75 133 C-75 128.05 -75 123.1 -75 118 C-74.34 118 -73.68 118 -73 118 C-73.012 117.362 -73.023 116.724 -73.035 116.066 C-73.044 115.24 -73.053 114.414 -73.062 113.562 C-73.074 112.739 -73.086 111.915 -73.098 111.066 C-73 109 -73 109 -72 108 C-71.717 105.746 -71.552 103.492 -71.379 101.227 C-71 99 -71 99 -69 96 C-68.34 96 -67.68 96 -67 96 C-67 94.02 -67 92.04 -67 90 C-66.34 90 -65.68 90 -65 90 C-64.856 89.237 -64.711 88.474 -64.562 87.688 C-64 85 -64 85 -63 82 C-62.34 82 -61.68 82 -61 82 C-60.34 80.02 -59.68 78.04 -59 76 C-58.01 76 -57.02 76 -56 76 C-55.67 75.34 -55.34 74.68 -55 74 C-54.34 74 -53.68 74 -53 74 C-53 74.99 -53 75.98 -53 77 C-52.34 77 -51.68 77 -51 77 C-51.66 74.69 -52.32 72.38 -53 70 C-51.515 69.505 -51.515 69.505 -50 69 C-49.643 67.673 -49.317 66.337 -49 65 C-46.091 58.674 -46.091 58.674 -42.875 56.688 C-42.256 56.461 -41.637 56.234 -41 56 C-40.34 55.34 -39.68 54.68 -39 54 C-39.319 51.892 -39.319 51.892 -40 50 C-39.01 50 -38.02 50 -37 50 C-36.951 49.397 -36.902 48.793 -36.852 48.172 C-36.777 47.373 -36.702 46.573 -36.625 45.75 C-36.521 44.567 -36.521 44.567 -36.414 43.359 C-35.985 40.914 -35.214 39.152 -34 37 C-33.01 37 -32.02 37 -31 37 C-31 32.05 -31 27.1 -31 22 C-29.35 22 -27.7 22 -26 22 C-26.021 20.907 -26.041 19.814 -26.062 18.688 C-26 15 -26 15 -25 12 C-24.34 12 -23.68 12 -23 12 C-22.67 10.35 -22.34 8.7 -22 7 C-22.99 6.34 -23.98 5.68 -25 5 C-22.36 4.01 -19.72 3.02 -17 2 C-17 1.67 -17 1.34 -17 1 C-20.96 0.67 -24.92 0.34 -29 0 C-29 -0.33 -29 -0.66 -29 -1 C-19.222 -2.449 -9.616 -2.704 0 0 Z M-19 1 C-17 2 -17 2 -17 2 Z M-76 110 C-75.67 110 -75.34 110 -75 110 C-75 112.64 -75 115.28 -75 118 C-75.33 118 -75.66 118 -76 118 C-76 115.36 -76 112.72 -76 110 Z M-84 138 C-83.01 138.495 -83.01 138.495 -82 139 C-82 139.99 -82 140.98 -82 142 C-82.66 142 -83.32 142 -84 142 C-84 140.68 -84 139.36 -84 138 Z " fill="#E7019E" transform="translate(313,90)"/>
<path d="M0 0 C2.02 0.759 4.01 1.569 6 2.402 C11.524 4.644 17.064 6.783 22.688 8.762 C23.816 9.159 24.944 9.556 26.106 9.965 C28.343 10.747 30.581 11.524 32.823 12.293 C33.849 12.654 34.876 13.015 35.934 13.387 C36.851 13.704 37.768 14.02 38.713 14.347 C41.076 15.408 42.39 16.453 44.063 18.402 C43.567 18.959 43.07 19.516 42.559 20.09 C39.252 23.805 35.951 27.524 32.688 31.277 C29.02 35.481 25.259 39.596 21.493 43.711 C18.799 46.695 16.196 49.746 13.633 52.844 C11.827 54.637 10.452 55.514 8.063 56.402 C5.932 55.93 5.932 55.93 3.649 54.91 C2.81 54.539 1.971 54.167 1.106 53.785 C0.226 53.37 -0.655 52.955 -1.562 52.527 C-2.462 52.11 -3.362 51.693 -4.289 51.264 C-10.915 48.098 -16.754 44.68 -21.937 39.402 C-22.56 38.778 -23.182 38.155 -23.824 37.512 C-27.68 33.089 -28.945 28.988 -29.171 23.145 C-28.563 16.024 -24.852 10.429 -19.937 5.402 C-13.075 -0.23 -8.91 -2.749 0 0 Z " fill="#3E018F" transform="translate(320.93701171875,134.59765625)"/>
<path d="M0 0 C4.142 0.703 7.92 1.972 11.875 3.375 C28.757 9.044 44.292 9.376 62 9 C58.991 10.582 56.363 11.439 53 12 C53.052 12.853 53.052 12.853 53.105 13.723 C53.303 19.345 52.326 22.812 50 28 C49.447 30.809 49.01 33.612 48.625 36.449 C47.864 39.556 47.475 40.919 45 43 C41.814 43.713 38.692 43.711 35.438 43.688 C34.479 43.685 33.52 43.683 32.533 43.681 C16.621 43.225 -2.737 38.493 -16.312 29.875 C-18.941 28.216 -21.039 26.987 -24 26 C-24 25.34 -24 24.68 -24 24 C-24.889 23.617 -24.889 23.617 -25.797 23.227 C-28.212 21.882 -29.512 20.508 -31.25 18.375 C-31.771 17.743 -32.292 17.112 -32.828 16.461 C-33.215 15.979 -33.602 15.497 -34 15 C-33.34 14.01 -32.68 13.02 -32 12 C-31.541 12.422 -31.082 12.843 -30.609 13.277 C-29.996 13.825 -29.382 14.373 -28.75 14.938 C-27.845 15.755 -27.845 15.755 -26.922 16.59 C-24.853 18.108 -23.559 18.796 -21 19 C-18.947 17.399 -16.943 15.732 -15 14 C-14.34 14 -13.68 14 -13 14 C-13 13.34 -13 12.68 -13 12 C-11.426 10.633 -11.426 10.633 -9.312 9.125 C-8.587 8.596 -7.861 8.068 -7.113 7.523 C-6.416 7.021 -5.719 6.518 -5 6 C-3.293 4.719 -1.606 3.405 0 2 C0 1.34 0 0.68 0 0 Z M62 8 C65 9 65 9 65 9 Z " fill="#CB22FD" transform="translate(267,260)"/>
<path d="M0 0 C2.867 1.285 4.976 2.571 7 5 C7 5.66 7 6.32 7 7 C7.66 7 8.32 7 9 7 C9 7.66 9 8.32 9 9 C9.66 9 10.32 9 11 9 C12.48 10.504 12.48 10.504 14.188 12.562 C16.6 15.413 19.062 18.096 21.75 20.688 C24.345 23.259 26.529 25.599 28 29 C27.688 31.312 27.688 31.312 27 33 C26.34 33 25.68 33 25 33 C25 32.34 25 31.68 25 31 C21.87 32.667 21.87 32.667 21.125 35.312 C19.711 38.691 17.67 40.531 15 43 C14.01 43.99 14.01 43.99 13 45 C10.617 45.195 10.617 45.195 7.875 45.125 C6.965 45.107 6.055 45.089 5.117 45.07 C4.419 45.047 3.72 45.024 3 45 C3 45.66 3 46.32 3 47 C0.36 47.66 -2.28 48.32 -5 49 C-5 49.66 -5 50.32 -5 51 C-5.66 51 -6.32 51 -7 51 C-6.67 51.99 -6.34 52.98 -6 54 C-6.66 54 -7.32 54 -8 54 C-7.974 54.694 -7.948 55.389 -7.921 56.104 C-7.094 81.329 -7.094 81.329 -13 91 C-13.403 91.745 -13.807 92.49 -14.223 93.258 C-15.102 94.865 -16.042 96.439 -17 98 C-19.31 98 -21.62 98 -24 98 C-23.541 97.334 -23.082 96.667 -22.609 95.98 C-15.534 85.353 -11.449 75.976 -13 63 C-15.969 50.39 -23.233 41.009 -33.992 34.07 C-41.477 29.628 -49.198 25.982 -57.222 22.614 C-62.899 20.202 -62.899 20.202 -64 18 C-63.34 18 -62.68 18 -62 18 C-61.67 17.34 -61.34 16.68 -61 16 C-59.35 16.33 -57.7 16.66 -56 17 C-56 17.66 -56 18.32 -56 19 C-55.434 19.121 -54.868 19.242 -54.285 19.367 C-53.552 19.535 -52.818 19.702 -52.062 19.875 C-51.332 20.037 -50.601 20.2 -49.848 20.367 C-48 21 -48 21 -47 23 C-44.583 23.926 -42.126 24.569 -39.633 25.262 C-37.481 25.865 -35.359 26.574 -33.25 27.312 C-29.27 28.154 -27.698 27.646 -24 26 C-22.034 24.158 -20.349 22.415 -18.625 20.375 C-17.668 19.285 -16.71 18.197 -15.75 17.109 C-15.285 16.578 -14.819 16.046 -14.34 15.498 C-12.514 13.457 -10.583 11.538 -8.625 9.625 C-5.519 6.57 -2.721 3.401 0 0 Z " fill="#5B02B8" transform="translate(397,173)"/>
<path d="M0 0 C0 21.45 0 42.9 0 65 C-1.485 64.505 -1.485 64.505 -3 64 C-3.939 56.961 -4.108 50.097 -4 43 C-5.65 43.66 -7.3 44.32 -9 45 C-9.495 42.03 -9.495 42.03 -10 39 C-10.99 39.495 -10.99 39.495 -12 40 C-13.677 39.721 -15.346 39.392 -17 39 C-17 38.34 -17 37.68 -17 37 C-17.684 36.883 -18.369 36.765 -19.074 36.645 C-22.433 35.905 -25.566 34.823 -28.812 33.688 C-34.364 31.792 -39.938 30.128 -45.625 28.688 C-46.619 28.431 -46.619 28.431 -47.632 28.169 C-51.181 27.295 -54.359 26.931 -58 27 C-60.339 26.355 -62.673 25.689 -65 25 C-65.99 25 -66.98 25 -68 25 C-68 24.34 -68 23.68 -68 23 C-69.982 23.593 -71.964 24.185 -73.946 24.779 C-75.709 25.307 -77.472 25.834 -79.236 26.36 C-84.284 27.869 -89.319 29.408 -94.344 30.992 C-95.899 31.478 -95.899 31.478 -97.486 31.974 C-99.516 32.61 -101.545 33.253 -103.571 33.903 C-104.497 34.191 -105.424 34.48 -106.379 34.777 C-107.199 35.038 -108.02 35.298 -108.865 35.566 C-111 36 -111 36 -114 35 C-105.775 31.422 -97.491 28.382 -88.938 25.688 C-87.824 25.328 -86.711 24.969 -85.564 24.6 C-77.389 22 -77.389 22 -74 22 C-73.67 21.34 -73.34 20.68 -73 20 C-71.059 19.324 -71.059 19.324 -68.438 18.688 C-63.701 17.471 -59.034 16.106 -54.375 14.625 C-47.221 12.362 -40.035 10.224 -32.832 8.121 C-29.821 7.24 -26.815 6.347 -23.812 5.438 C-22.208 4.958 -20.604 4.479 -19 4 C-17.832 3.647 -16.664 3.294 -15.461 2.93 C-14.216 2.561 -12.97 2.192 -11.688 1.812 C-10.536 1.468 -9.385 1.124 -8.199 0.77 C-5 0 -5 0 0 0 Z M0 65 C2 66 2 66 2 66 Z M2 66 C4 67 4 67 4 67 Z M4 67 C6 68 6 68 6 68 Z M6 68 C9.583 69.654 12.81 71.68 16 74 C16 74.66 16 75.32 16 76 C16.566 76.213 17.132 76.425 17.715 76.645 C24.123 80.445 29.93 89.905 32 97 C31.688 99.438 31.688 99.438 31 101 C28.821 98.821 27.805 96.877 26.438 94.125 C26.003 93.261 25.569 92.398 25.121 91.508 C24.144 89.322 23.483 87.336 23 85 C22.34 85 21.68 85 21 85 C19.738 83.574 19.738 83.574 18.312 81.688 C15.231 77.929 12.564 76.552 8 75 C8 74.01 8 73.02 8 72 C7.05 69.85 7.05 69.85 6 68 Z " fill="#DF3BFC" transform="translate(427,97)"/>
<path d="M0 0 C0.99 0.33 1.98 0.66 3 1 C2.408 1.424 1.817 1.848 1.207 2.285 C-5.523 7.281 -11.354 12.439 -13 21 C-13.269 27.73 -12.445 32.962 -7.941 38.113 C1.595 47.381 12.999 51.758 25.116 56.795 C68.452 74.901 68.452 74.901 77.273 95.957 C80.494 105.013 79.897 114.571 76.289 123.41 C74.233 127.54 71.742 131.298 69 135 C68.34 134.01 67.68 133.02 67 132 C67.41 131.322 67.82 130.644 68.242 129.945 C74 120.001 76.238 111.416 74 100 C70.352 87.242 62.434 79.188 51.098 72.738 C43.597 68.604 36.056 65.041 27.996 62.113 C22.488 60.067 16.964 57.74 11.891 54.762 C6.999 51.915 3.683 51.797 -1.898 52.738 C-4 53 -4 53 -6 52 C-7.485 52.495 -7.485 52.495 -9 53 C-9.33 53.99 -9.66 54.98 -10 56 C-10.33 56.99 -10.66 57.98 -11 59 C-12.485 59.495 -12.485 59.495 -14 60 C-14 60.66 -14 61.32 -14 62 C-14.99 62 -15.98 62 -17 62 C-17.33 63.98 -17.66 65.96 -18 68 C-19.485 68.495 -19.485 68.495 -21 69 C-21 69.66 -21 70.32 -21 71 C-22.65 70.34 -24.3 69.68 -26 69 C-26 68.34 -26 67.68 -26 67 C-26.66 67 -27.32 67 -28 67 C-34.013 60.853 -37.054 53.601 -37.375 45.062 C-36.859 31.705 -29.824 22.145 -20.461 13.102 C-16.29 9.54 -11.724 6.762 -7 4 C-6.291 3.553 -5.582 3.105 -4.852 2.645 C-3 1.5 -3 1.5 0 0 Z M-20 72 C-19.34 72 -18.68 72 -18 72 C-18.33 72.66 -18.66 73.32 -19 74 C-19.33 73.34 -19.66 72.68 -20 72 Z M66 135 C66.66 135.33 67.32 135.66 68 136 C67.01 137.65 66.02 139.3 65 141 C64.34 140.67 63.68 140.34 63 140 C63.99 138.35 64.98 136.7 66 135 Z M62 141 C62 141.99 62 142.98 62 144 C61.34 143.67 60.68 143.34 60 143 C60.66 142.34 61.32 141.68 62 141 Z M55 147 C57 148 57 148 57 148 Z M50 151 C50.66 151.33 51.32 151.66 52 152 C51.01 152 50.02 152 49 152 C49.33 151.67 49.66 151.34 50 151 Z M47 153 C49 154 49 154 49 154 Z M44 155 C46 156 46 156 46 156 Z " fill="#F84AF5" transform="translate(306,134)"/>
<path d="M0 0 C1.154 2.308 1.534 4.472 2 7 C3.98 7.33 5.96 7.66 8 8 C8 8.66 8 9.32 8 10 C11.3 10.33 14.6 10.66 18 11 C18 11.66 18 12.32 18 13 C20.475 13.99 20.475 13.99 23 15 C23 15.66 23 16.32 23 17 C26.465 15.02 26.465 15.02 30 13 C30.99 13.99 30.99 13.99 32 15 C29.815 17.356 27.626 19.71 25.438 22.062 C24.828 22.719 24.219 23.376 23.592 24.053 C19.967 27.946 16.281 31.754 12.477 35.473 C10.805 37.14 10.805 37.14 8.875 39.812 C6.689 42.362 5.251 43.207 2 44 C-0.625 43.625 -0.625 43.625 -3 43 C-3.99 43 -4.98 43 -6 43 C-6 42.34 -6 41.68 -6 41 C-6.831 40.807 -7.663 40.613 -8.52 40.414 C-10.15 40.023 -10.15 40.023 -11.812 39.625 C-13.431 39.242 -13.431 39.242 -15.082 38.852 C-18 38 -18 38 -21 36 C-22.326 35.318 -23.658 34.648 -25 34 C-25 33.34 -25 32.68 -25 32 C-28.856 31.78 -31.492 32.396 -35 34 C-33.692 31.132 -32.273 29.001 -30.102 26.723 C-29.259 25.828 -29.259 25.828 -28.398 24.916 C-27.813 24.304 -27.228 23.693 -26.625 23.062 C-25.47 21.847 -24.316 20.629 -23.164 19.41 C-22.616 18.832 -22.069 18.254 -21.504 17.659 C-19.817 15.845 -19.817 15.845 -17.781 13.09 C-16 11 -16 11 -12.875 10.5 C-11.926 10.335 -10.978 10.17 -10 10 C-8.845 7.529 -8.845 7.529 -8 5 C-5.938 4.375 -5.938 4.375 -4 4 C-3.67 3.01 -3.34 2.02 -3 1 C-2.01 0.67 -1.02 0.34 0 0 Z M-2 4 C-2.99 5.485 -2.99 5.485 -4 7 C-3.01 7.495 -3.01 7.495 -2 8 C-1.34 7.67 -0.68 7.34 0 7 C-0.33 6.01 -0.66 5.02 -1 4 C-1.33 4 -1.66 4 -2 4 Z " fill="#9E14F3" transform="translate(366,158)"/>
<path d="M0 0 C1.774 0.425 3.544 0.865 5.312 1.312 C6.299 1.556 7.285 1.8 8.301 2.051 C11.016 3.006 12.284 3.722 14 6 C14 6.66 14 7.32 14 8 C14.66 8 15.32 8 16 8 C20.429 15.286 20.429 15.286 21 20 C22.32 20 23.64 20 25 20 C27.464 27.391 26.039 34.016 23.168 41.066 C22 43 22 43 19 44 C18.732 44.639 18.464 45.279 18.188 45.938 C17 48 17 48 13.875 49.25 C12.926 49.498 11.978 49.745 11 50 C11 50.33 11 50.66 11 51 C1.305 50.633 -10.17 49.415 -19 45 C-19 44.34 -19 43.68 -19 43 C-16.03 43.33 -13.06 43.66 -10 44 C-9.67 43.01 -9.34 42.02 -9 41 C-10.32 41 -11.64 41 -13 41 C-13 40.34 -13 39.68 -13 39 C-11.515 38.505 -11.515 38.505 -10 38 C-3.765 27.767 -1.545 16.841 -2 5 C-0.02 4.34 1.96 3.68 4 3 C2.68 2.34 1.36 1.68 0 1 C0 0.67 0 0.34 0 0 Z M-2 2 C-1.34 2 -0.68 2 0 2 C-0.33 2.66 -0.66 3.32 -1 4 C-1.33 3.34 -1.66 2.68 -2 2 Z " fill="#A009C3" transform="translate(297,219)"/>
<path d="M0 0 C2.453 2.254 2.453 2.254 4 4 C0.761 2.851 -2.065 1.382 -5 -0.375 C-21.051 -9.432 -40.454 -10.002 -57.953 -5.188 C-76.977 1.335 -90.756 13.678 -99.596 31.66 C-104.504 42.076 -105.793 52.686 -107 64 C-108.221 64.159 -109.441 64.317 -110.699 64.48 C-127.545 66.808 -144.386 71.07 -155.512 84.984 C-156.003 85.65 -156.494 86.315 -157 87 C-157.46 87.603 -157.92 88.207 -158.395 88.828 C-166.482 100.458 -167.34 114.311 -166 128 C-163.64 140.966 -157.166 152.151 -146.426 159.844 C-136.451 166.575 -136.451 166.575 -125 169 C-125 169.66 -125 170.32 -125 171 C-119.72 171 -114.44 171 -109 171 C-109.165 169.928 -109.33 168.855 -109.5 167.75 C-110.43 160.171 -111.166 152.122 -108 145 C-107.119 147.967 -106.996 150.361 -107.188 153.438 C-107.281 159.126 -105.691 163.965 -103.875 169.312 C-103 172 -103 172 -103 174 C-122.126 174.98 -136.732 173.495 -152 161 C-152.717 160.444 -153.433 159.889 -154.172 159.316 C-164.261 151.105 -170.434 138.892 -172 126 C-172.581 116.838 -172.152 108.652 -169 100 C-168.733 99.245 -168.466 98.489 -168.191 97.711 C-162.495 83.382 -151.748 73.683 -137.996 67.254 C-128.553 63.302 -120.212 62.597 -110 63 C-110.058 62.426 -110.116 61.853 -110.176 61.262 C-111.13 43.299 -103.487 26.388 -92 13 C-89.5 10.312 -89.5 10.312 -87 8 C-86.501 7.531 -86.002 7.062 -85.488 6.578 C-61.733 -14.907 -26.759 -16.363 0 0 Z M4 4 C6 5 6 5 6 5 Z " fill="#F165D1" transform="translate(333,97)"/>
<path d="M0 0 C4.207 0.72 8.093 1.986 12.125 3.375 C17.644 5.26 23.162 6.925 28.828 8.324 C31 9 31 9 34 11 C32.519 10.857 32.519 10.857 31.008 10.711 C29.726 10.6 28.445 10.489 27.125 10.375 C25.211 10.201 25.211 10.201 23.258 10.023 C22.183 10.016 21.108 10.008 20 10 C19.34 10.66 18.68 11.32 18 12 C18 12.99 18 13.98 18 15 C17.34 15 16.68 15 16 15 C15.732 15.804 15.464 16.609 15.188 17.438 C14.532 19.405 13.873 21.371 13.199 23.332 C12.927 24.13 12.655 24.928 12.375 25.75 C12.115 26.508 11.854 27.266 11.586 28.047 C10.904 29.979 10.904 29.979 11 32 C10.01 32.66 9.02 33.32 8 34 C10.31 34.99 12.62 35.98 15 37 C15 37.99 15 38.98 15 40 C2.18 38.995 -8.803 33.927 -20 28 C-21.331 27.329 -22.663 26.66 -24 26 C-24 25.34 -24 24.68 -24 24 C-24.889 23.617 -24.889 23.617 -25.797 23.227 C-28.212 21.882 -29.512 20.508 -31.25 18.375 C-31.771 17.743 -32.292 17.112 -32.828 16.461 C-33.215 15.979 -33.602 15.497 -34 15 C-33.34 14.01 -32.68 13.02 -32 12 C-31.541 12.422 -31.082 12.843 -30.609 13.277 C-29.996 13.825 -29.382 14.373 -28.75 14.938 C-27.845 15.755 -27.845 15.755 -26.922 16.59 C-24.853 18.108 -23.559 18.796 -21 19 C-18.947 17.399 -16.943 15.732 -15 14 C-14.34 14 -13.68 14 -13 14 C-13 13.34 -13 12.68 -13 12 C-11.426 10.633 -11.426 10.633 -9.312 9.125 C-8.587 8.596 -7.861 8.068 -7.113 7.523 C-6.416 7.021 -5.719 6.518 -5 6 C-3.293 4.719 -1.606 3.405 0 2 C0 1.34 0 0.68 0 0 Z M17 8 C17.33 8.66 17.66 9.32 18 10 C18.33 9.34 18.66 8.68 19 8 C18.34 8 17.68 8 17 8 Z M18 11 C20 12 20 12 20 12 Z M21.141 38.363 C21.837 38.677 22.533 38.99 23.25 39.312 C23.956 39.618 24.663 39.924 25.391 40.238 C25.922 40.49 26.453 40.741 27 41 C26.34 41.66 25.68 42.32 25 43 C22.617 42.758 22.617 42.758 19.875 42.125 C18.965 41.921 18.055 41.718 17.117 41.508 C16.419 41.34 15.72 41.173 15 41 C18.4 37.898 18.4 37.898 21.141 38.363 Z " fill="#F84AF6" transform="translate(267,260)"/>
<path d="M0 0 C9.561 2.821 17.799 7.399 26 13 C27.319 13.694 28.646 14.375 30 15 C30 15.66 30 16.32 30 17 C30.66 17 31.32 17 32 17 C34.321 20.249 35.437 23.059 36 27 C32.349 28.649 28.737 29.484 24.832 30.312 C13.375 33.094 2.161 37.231 -9 41 C-9.33 40.34 -9.66 39.68 -10 39 C-9 37 -9 37 -6 36 C-5.939 35.013 -5.879 34.025 -5.816 33.008 C-5.733 31.726 -5.649 30.445 -5.562 29.125 C-5.481 27.849 -5.4 26.573 -5.316 25.258 C-5 22 -5 22 -4 20 C-3.898 18.397 -3.817 16.792 -3.75 15.188 C-3.397 11.258 -3.11 10.145 -0.625 6.875 C2 5 2 5 5 5 C5 4.34 5 3.68 5 3 C2.36 3 -0.28 3 -3 3 C-2.01 2.01 -1.02 1.02 0 0 Z M35 22 C35.99 22.495 35.99 22.495 37 23 C36.67 23.66 36.34 24.32 36 25 C35.67 24.01 35.34 23.02 35 22 Z " fill="#D106B0" transform="translate(315,91)"/>
<path d="M0 0 C0.66 0 1.32 0 2 0 C2.519 1.085 3.039 2.171 3.574 3.289 C4.278 4.735 4.983 6.18 5.688 7.625 C6.027 8.338 6.367 9.051 6.717 9.785 C9.867 16.202 13.837 21.028 19 26 C18.67 26.99 18.34 27.98 18 29 C17.361 29.144 16.721 29.289 16.062 29.438 C15.382 29.623 14.701 29.809 14 30 C12.892 31.883 12.892 31.883 12 34 C10.5 35.75 10.5 35.75 9 37 C8.34 37 7.68 37 7 37 C7 37.66 7 38.32 7 39 C5.469 40.508 5.469 40.508 3.5 42.125 C2.85 42.664 2.201 43.203 1.531 43.758 C1.026 44.168 0.521 44.578 0 45 C-0.33 44.34 -0.66 43.68 -1 43 C-1.99 42.67 -2.98 42.34 -4 42 C-4.66 41.34 -5.32 40.68 -6 40 C-6.66 39.67 -7.32 39.34 -8 39 C-11.472 28.39 -10.476 19.194 -6 9 C-4.234 5.816 -2.417 2.735 0 0 Z M18 29 C20 30 20 30 20 30 Z " fill="#94016F" transform="translate(235,225)"/>
<path d="M0 0 C0.66 0.33 1.32 0.66 2 1 C2 1.66 2 2.32 2 3 C-0.31 3.33 -2.62 3.66 -5 4 C-2 2 -2 2 0 2 C0 1.34 0 0.68 0 0 Z M-5 4 C-7.643 6.643 -10.094 7.165 -13.652 8.312 C-14.636 8.634 -14.636 8.634 -15.64 8.962 C-17.737 9.647 -19.837 10.324 -21.938 11 C-24.034 11.676 -26.13 12.354 -28.224 13.038 C-30.127 13.659 -32.032 14.273 -33.937 14.887 C-37.113 15.904 -37.113 15.904 -40 18 C-41.324 18.427 -42.659 18.82 -44 19.188 C-57.744 23.665 -71.154 35.258 -78.059 47.945 C-81.279 55.065 -82.369 63.104 -80.246 70.695 C-78.439 75.443 -76.368 79.151 -73 83 C-73 83.66 -73 84.32 -73 85 C-72.34 85 -71.68 85 -71 85 C-71 85.66 -71 86.32 -71 87 C-70.127 87.426 -70.127 87.426 -69.237 87.86 C-67.169 88.914 -65.193 90.042 -63.207 91.242 C-62.137 91.882 -62.137 91.882 -61.045 92.535 C-59.574 93.418 -58.106 94.303 -56.639 95.191 C-51.579 98.208 -46.433 100.725 -41 103 C-41.66 103.99 -42.32 104.98 -43 106 C-46.125 106.188 -46.125 106.188 -49 106 C-49 105.34 -49 104.68 -49 104 C-50.32 104 -51.64 104 -53 104 C-52.01 104.66 -51.02 105.32 -50 106 C-50.33 106.66 -50.66 107.32 -51 108 C-51.99 107.67 -52.98 107.34 -54 107 C-54 106.34 -54 105.68 -54 105 C-55.485 105.495 -55.485 105.495 -57 106 C-60.441 103.993 -63.218 101.81 -66 99 C-67.243 97.908 -68.493 96.826 -69.75 95.75 C-70.453 95.129 -71.155 94.507 -71.879 93.867 C-73.2 92.704 -74.539 91.559 -75.902 90.445 C-82.463 84.674 -85.432 76.988 -86.41 68.398 C-86.703 56.724 -84.022 48.254 -77 39 C-76.404 38.197 -75.809 37.394 -75.195 36.566 C-61.727 20.822 -41.189 13.035 -22 7 C-21.117 6.718 -20.234 6.437 -19.324 6.146 C-18.445 5.872 -17.566 5.599 -16.66 5.316 C-15.866 5.068 -15.072 4.82 -14.254 4.565 C-11.064 3.765 -8.271 3.787 -5 4 Z M-56 106 C-55.34 106.66 -54.68 107.32 -54 108 C-54.66 108 -55.32 108 -56 108 C-56 107.34 -56 106.68 -56 106 Z " fill="#AF0291" transform="translate(351,116)"/>
<path d="M0 0 C-0.592 0.424 -1.183 0.848 -1.793 1.285 C-8.523 6.281 -14.354 11.439 -16 20 C-16.269 26.73 -15.445 31.962 -10.941 37.113 C-1.405 46.381 9.999 50.758 22.116 55.795 C65.452 73.901 65.452 73.901 74.273 94.957 C77.494 104.013 76.897 113.571 73.289 122.41 C71.233 126.54 68.742 130.298 66 134 C65.34 133.01 64.68 132.02 64 131 C64.41 130.322 64.82 129.644 65.242 128.945 C71 119.001 73.238 110.416 71 99 C67.352 86.242 59.434 78.188 48.098 71.738 C40.585 67.598 33.033 64.04 24.965 61.098 C20.183 59.327 15.598 57.198 11 55 C10.371 54.702 9.743 54.404 9.095 54.097 C-12.501 43.807 -12.501 43.807 -19 32 C-21.002 25.994 -20.675 20.754 -18 15 C-14.648 8.888 -8.076 -2.692 0 0 Z M63 134 C63.66 134.33 64.32 134.66 65 135 C64.01 136.65 63.02 138.3 62 140 C61.34 139.67 60.68 139.34 60 139 C60.99 137.35 61.98 135.7 63 134 Z M59 140 C59 140.99 59 141.98 59 143 C58.34 142.67 57.68 142.34 57 142 C57.66 141.34 58.32 140.68 59 140 Z M52 146 C54 147 54 147 54 147 Z M47 150 C47.66 150.33 48.32 150.66 49 151 C48.01 151 47.02 151 46 151 C46.33 150.67 46.66 150.34 47 150 Z M44 152 C46 153 46 153 46 153 Z M41 154 C43 155 43 155 43 155 Z " fill="#F5A3F7" transform="translate(309,135)"/>
<path d="M0 0 C0 19.14 0 38.28 0 58 C-0.99 58.495 -0.99 58.495 -2 59 C-2.061 57.782 -2.121 56.564 -2.184 55.309 C-2.268 53.685 -2.353 52.061 -2.438 50.438 C-2.477 49.638 -2.516 48.838 -2.557 48.014 C-2.744 44.484 -2.992 41.05 -3.516 37.551 C-3.91 34.661 -4.101 31.953 -4.176 29.047 C-4.212 27.748 -4.212 27.748 -4.248 26.422 C-4.291 24.625 -4.322 22.828 -4.342 21.031 C-4.357 15.993 -4.357 15.993 -6.918 11.891 C-8.929 10.869 -8.929 10.869 -11 11 C-11 10.34 -11 9.68 -11 9 C-11.99 8.67 -12.98 8.34 -14 8 C-12.68 7.34 -11.36 6.68 -10 6 C-21.675 8.653 -33.063 12.297 -44.5 15.812 C-47.482 16.726 -50.465 17.639 -53.448 18.552 C-55.417 19.154 -57.387 19.757 -59.356 20.361 C-66.622 22.586 -73.899 24.774 -81.18 26.949 C-85.757 28.319 -90.323 29.716 -94.879 31.152 C-95.839 31.453 -96.798 31.754 -97.787 32.064 C-99.706 32.668 -101.622 33.278 -103.537 33.893 C-104.475 34.185 -105.413 34.477 -106.379 34.777 C-107.199 35.038 -108.02 35.298 -108.865 35.566 C-111 36 -111 36 -114 35 C-105.775 31.422 -97.491 28.382 -88.938 25.688 C-87.824 25.328 -86.711 24.969 -85.564 24.6 C-77.389 22 -77.389 22 -74 22 C-73.67 21.34 -73.34 20.68 -73 20 C-71.059 19.324 -71.059 19.324 -68.438 18.688 C-63.701 17.471 -59.034 16.106 -54.375 14.625 C-47.221 12.362 -40.035 10.224 -32.832 8.121 C-29.821 7.24 -26.815 6.347 -23.812 5.438 C-22.208 4.958 -20.604 4.479 -19 4 C-17.832 3.647 -16.664 3.294 -15.461 2.93 C-14.216 2.561 -12.97 2.192 -11.688 1.812 C-10.536 1.468 -9.385 1.124 -8.199 0.77 C-5 0 -5 0 0 0 Z " fill="#F749F6" transform="translate(427,97)"/>
<path d="M0 0 C3 1 3 1 3 1 Z M-3.438 0.938 C-2.303 0.958 -1.169 0.979 0 1 C-2.967 2.648 -5.656 3.443 -9 4 C-8.948 4.853 -8.948 4.853 -8.895 5.723 C-8.697 11.345 -9.674 14.812 -12 20 C-12.553 22.809 -12.99 25.612 -13.375 28.449 C-14.126 31.515 -14.573 32.937 -17 35 C-19.91 35.49 -22.747 35.375 -25.688 35.25 C-26.883 35.223 -26.883 35.223 -28.104 35.195 C-30.07 35.148 -32.035 35.076 -34 35 C-34.33 34.34 -34.66 33.68 -35 33 C-33.68 32.67 -32.36 32.34 -31 32 C-31.33 31.34 -31.66 30.68 -32 30 C-31.01 29.34 -30.02 28.68 -29 28 C-29.031 26.701 -29.031 26.701 -29.062 25.375 C-29 22.012 -28.677 21.058 -27.125 18.25 C-24.637 13.697 -23.793 9.089 -23 4 C-21.393 3.801 -21.393 3.801 -19.754 3.598 C-18.357 3.419 -16.96 3.241 -15.562 3.062 C-14.855 2.975 -14.148 2.888 -13.42 2.799 C-9.719 2.321 -7.025 1 -3.438 0.938 Z " fill="#A21AF3" transform="translate(329,268)"/>
<path d="M0 0 C2 1 2 1 2 1 Z M6 3 C6.058 6.583 6.094 10.166 6.125 13.75 C6.142 14.766 6.159 15.782 6.176 16.828 C6.182 17.808 6.189 18.788 6.195 19.797 C6.206 20.698 6.216 21.598 6.227 22.526 C5.987 25.139 5.323 26.757 4 29 C3.34 29 2.68 29 2 29 C2 29.99 2 30.98 2 32 C-4.759 34.08 -10.956 34.211 -18 34 C-17.34 33.546 -16.68 33.092 -16 32.625 C-15.34 32.089 -14.68 31.553 -14 31 C-14 30.34 -14 29.68 -14 29 C-13.34 29 -12.68 29 -12 29 C-11.879 28.12 -11.758 27.239 -11.633 26.332 C-11.465 25.171 -11.298 24.009 -11.125 22.812 C-10.963 21.664 -10.8 20.515 -10.633 19.332 C-10.056 16.297 -9.187 13.833 -8 11 C-7.619 8.674 -7.275 6.341 -7 4 C-5.591 3.44 -4.172 2.903 -2.75 2.375 C-1.961 2.073 -1.172 1.772 -0.359 1.461 C2.534 0.896 3.489 1.605 6 3 Z " fill="#7706E0" transform="translate(327,268)"/>
<path d="M0 0 C5.506 10.277 4.263 24.907 1.188 35.812 C-0.307 40.316 -1.96 44.715 -4 49 C-5.32 49 -6.64 49 -8 49 C-7.085 46.635 -6.145 44.302 -5.047 42.016 C0.719 29.882 1.253 17.175 -1 4 C-0.562 1.625 -0.562 1.625 0 0 Z M-6 46 C-5 48 -5 48 -5 48 Z M-8 51 C-8 54 -8 54 -8 54 Z M-13 54 C-12.67 54.66 -12.34 55.32 -12 56 C-12.66 55.67 -13.32 55.34 -14 55 C-13.67 54.67 -13.34 54.34 -13 54 Z M-15 58 C-14.01 58.495 -14.01 58.495 -13 59 C-13.99 59.495 -13.99 59.495 -15 60 C-15 59.34 -15 58.68 -15 58 Z M-19 59 C-17 60 -17 60 -17 60 Z M-17 60 C-15 61 -15 61 -15 61 Z M-20 60 C-19.67 60.66 -19.34 61.32 -19 62 C-19.99 61.67 -20.98 61.34 -22 61 C-21.34 60.67 -20.68 60.34 -20 60 Z M-23 62 C-22.67 62.66 -22.34 63.32 -22 64 C-21.34 64.33 -20.68 64.66 -20 65 C-21.62 65.864 -23.246 66.716 -24.875 67.562 C-26.232 68.276 -26.232 68.276 -27.617 69.004 C-28.404 69.333 -29.19 69.661 -30 70 C-30.66 69.67 -31.32 69.34 -32 69 C-29.192 66.036 -26.817 63.555 -23 62 Z M-70 64 C-69.325 64.205 -68.649 64.41 -67.953 64.621 C-67.061 64.891 -66.169 65.16 -65.25 65.438 C-64.368 65.704 -63.487 65.971 -62.578 66.246 C-52.95 69.062 -42.893 69.93 -33 68 C-32.505 69.485 -32.505 69.485 -32 71 C-42.155 74.326 -51.712 74.359 -62.25 74.188 C-63.881 74.172 -65.513 74.159 -67.145 74.146 C-71.097 74.114 -75.048 74.062 -79 74 C-77.589 70.117 -76.536 68.239 -73 66 C-72.34 66.33 -71.68 66.66 -71 67 C-70.67 66.01 -70.34 65.02 -70 64 Z M-56 67 C-53 68 -53 68 -53 68 Z " fill="#A218EA" transform="translate(459,197)"/>
<path d="M0 0 C2.453 2.254 2.453 2.254 4 4 C0.761 2.851 -2.065 1.382 -5 -0.375 C-21.051 -9.432 -40.454 -10.002 -57.953 -5.188 C-76.977 1.335 -90.756 13.678 -99.596 31.66 C-104.504 42.076 -105.793 52.686 -107 64 C-111.62 64 -116.24 64 -121 64 C-121 63.67 -121 63.34 -121 63 C-117.37 63 -113.74 63 -110 63 C-110.103 61.577 -110.206 60.154 -110.312 58.688 C-110.289 40.19 -101.864 23.604 -89.5 10.312 C-88.675 9.549 -87.85 8.786 -87 8 C-86.501 7.531 -86.002 7.062 -85.488 6.578 C-61.733 -14.907 -26.759 -16.363 0 0 Z M4 4 C6 5 6 5 6 5 Z " fill="#F167D2" transform="translate(333,97)"/>
<path d="M0 0 C4.147 3.049 8.271 6.579 11 11 C10.67 11.99 10.34 12.98 10 14 C9.361 14.144 8.721 14.289 8.062 14.438 C7.042 14.716 7.042 14.716 6 15 C4.892 16.883 4.892 16.883 4 19 C2.5 20.75 2.5 20.75 1 22 C0.34 22 -0.32 22 -1 22 C-1 22.66 -1 23.32 -1 24 C-2.531 25.508 -2.531 25.508 -4.5 27.125 C-5.15 27.664 -5.799 28.203 -6.469 28.758 C-6.974 29.168 -7.479 29.578 -8 30 C-8.33 29.34 -8.66 28.68 -9 28 C-9.99 27.67 -10.98 27.34 -12 27 C-12.66 26.34 -13.32 25.68 -14 25 C-14.66 24.67 -15.32 24.34 -16 24 C-16.407 21.678 -16.744 19.343 -17 17 C-16.34 16.67 -15.68 16.34 -15 16 C-14.67 16.66 -14.34 17.32 -14 18 C-13.546 17.34 -13.093 16.68 -12.625 16 C-12.089 15.34 -11.553 14.68 -11 14 C-10.34 14 -9.68 14 -9 14 C-8.67 12.68 -8.34 11.36 -8 10 C-7.423 9.979 -6.845 9.959 -6.25 9.938 C-2.571 8.404 -1.727 5.516 0 2 C0 1.34 0 0.68 0 0 Z M10 14 C12 15 12 15 12 15 Z " fill="#AF0290" transform="translate(243,240)"/>
<path d="M0 0 C0.66 0 1.32 0 2 0 C2 0.66 2 1.32 2 2 C3.423 2.124 3.423 2.124 4.875 2.25 C8 3 8 3 9.25 5 C9.498 5.66 9.745 6.32 10 7 C10.66 7.33 11.32 7.66 12 8 C12.727 9.979 13.398 11.98 14 14 C14.66 13.34 15.32 12.68 16 12 C18.625 12.375 18.625 12.375 21 13 C20.01 13.495 20.01 13.495 19 14 C18.814 14.784 18.629 15.567 18.438 16.375 C16.454 19.998 14.402 20.137 10.587 21.317 C6.412 22.419 2.208 23.081 -2.062 23.688 C-2.928 23.817 -3.794 23.947 -4.686 24.08 C-6.789 24.394 -8.895 24.698 -11 25 C-11 24.34 -11 23.68 -11 23 C-10.34 23 -9.68 23 -9 23 C-8.34 21.35 -7.68 19.7 -7 18 C-6.01 18 -5.02 18 -4 18 C-3.876 17.092 -3.752 16.185 -3.625 15.25 C-3 12 -3 12 -2 10.125 C-0.461 6.855 -0.359 3.585 0 0 Z " fill="#7503E1" transform="translate(323,244)"/>
<path d="M0 0 C2.867 1.285 4.976 2.571 7 5 C7 5.66 7 6.32 7 7 C7.66 7 8.32 7 9 7 C9.33 8.32 9.66 9.64 10 11 C7.215 13.447 4.688 15.23 1.25 16.562 C0.178 17.037 -0.895 17.511 -2 18 C-2.33 18.99 -2.66 19.98 -3 21 C-3.66 21 -4.32 21 -5 21 C-5 21.66 -5 22.32 -5 23 C-8.334 24.429 -11.455 25.291 -15 26 C-16.679 26.634 -18.35 27.293 -20 28 C-20.359 24.771 -20.281 23.389 -18.348 20.711 C-17.594 19.94 -16.839 19.169 -16.062 18.375 C-11.753 13.834 -7.773 9.124 -3.848 4.25 C-2 2 -2 2 0 0 Z " fill="#3E0191" transform="translate(397,173)"/>
<path d="M0 0 C0.99 0.495 0.99 0.495 2 1 C1.01 1.495 1.01 1.495 0 2 C0 1.34 0 0.68 0 0 Z M8.125 1.438 C9.035 1.539 9.945 1.641 10.883 1.746 C11.581 1.83 12.28 1.914 13 2 C11.654 6.498 10.287 10.763 7.875 14.812 C6.369 17.374 5.461 19.12 5 22 C4.34 22 3.68 22 3 22 C3.041 23.093 3.082 24.186 3.125 25.312 C3 29 3 29 1 32 C-1.867 31.427 -2.861 31.139 -5 29 C-6.984 28.286 -8.983 27.614 -11 27 C-9.625 25.5 -9.625 25.5 -8 24 C-7.34 24 -6.68 24 -6 24 C-6.226 23.479 -6.451 22.958 -6.684 22.422 C-7.159 18.781 -5.658 16.506 -4.062 13.25 C-3.497 12.08 -2.931 10.909 -2.348 9.703 C-1.903 8.811 -1.458 7.919 -1 7 C-0.34 7 0.32 7 1 7 C1 5.35 1 3.7 1 2 C3.623 0.688 5.23 1.104 8.125 1.438 Z " fill="#E03CFC" transform="translate(284,268)"/>
<path d="M0 0 C0.66 0.33 1.32 0.66 2 1 C4.368 8.103 4.135 18.823 1.812 26 C0 29 0 29 -2.688 30 C-3.451 30 -4.214 30 -5 30 C-4.773 29.237 -4.546 28.474 -4.312 27.688 C-4.158 26.357 -4.158 26.357 -4 25 C-5.291 23.541 -5.291 23.541 -7 22 C-10.062 16.094 -10.062 16.094 -9.863 12.605 C-8.73 9.186 -6.905 7.294 -4.438 4.688 C-3.611 3.804 -2.785 2.921 -1.934 2.012 C-1.296 1.348 -0.657 0.684 0 0 Z M-8 31 C-6 32 -6 32 -6 32 Z M-5 31 C-4.34 31.33 -3.68 31.66 -3 32 C-3.66 32.66 -4.32 33.32 -5 34 C-5 33.01 -5 32.02 -5 31 Z " fill="#3E0190" transform="translate(355,251)"/>
<path d="M0 0 C0.99 0 1.98 0 3 0 C3.66 1.65 4.32 3.3 5 5 C1.453 8.658 -2.269 12.029 -6.133 15.352 C-7.825 16.846 -9.422 18.386 -11 20 C-11.66 20.66 -12.32 21.32 -13 22 C-12.67 22.99 -12.34 23.98 -12 25 C-12.99 25 -13.98 25 -15 25 C-15.33 24.34 -15.66 23.68 -16 23 C-16.99 22.835 -17.98 22.67 -19 22.5 C-19.99 22.335 -20.98 22.17 -22 22 C-22.33 21.34 -22.66 20.68 -23 20 C-22.423 19.752 -21.845 19.505 -21.25 19.25 C-18.866 18.06 -18.866 18.06 -16.875 15.875 C-15.947 14.947 -15.947 14.947 -15 14 C-14.34 14 -13.68 14 -13 14 C-13 13.34 -13 12.68 -13 12 C-11.426 10.633 -11.426 10.633 -9.312 9.125 C-8.587 8.596 -7.861 8.068 -7.113 7.523 C-6.416 7.021 -5.719 6.518 -5 6 C-3.293 4.719 -1.606 3.405 0 2 C0 1.34 0 0.68 0 0 Z M-33 12 C-29.661 14.46 -27.786 16.3 -26 20 C-25.01 20.33 -24.02 20.66 -23 21 C-21.812 23.062 -21.812 23.062 -21 25 C-24.137 23.573 -26.624 21.852 -29.25 19.625 C-29.956 19.04 -30.663 18.455 -31.391 17.852 C-33 16 -33 16 -33 12 Z M-18 23 C-17.01 23.33 -16.02 23.66 -15 24 C-15.99 24 -16.98 24 -18 24 C-18 23.67 -18 23.34 -18 23 Z M-21 25 C-20.01 25.33 -19.02 25.66 -18 26 C-18.99 26 -19.98 26 -21 26 C-21 25.67 -21 25.34 -21 25 Z " fill="#EF4FC5" transform="translate(267,260)"/>
<path d="M0 0 C5.506 10.277 4.263 24.907 1.188 35.812 C-0.307 40.316 -1.96 44.715 -4 49 C-5.32 49 -6.64 49 -8 49 C-7.085 46.635 -6.145 44.302 -5.047 42.016 C0.719 29.882 1.253 17.175 -1 4 C-0.562 1.625 -0.562 1.625 0 0 Z M-6 46 C-5 48 -5 48 -5 48 Z M-8 51 C-8 54 -8 54 -8 54 Z M-13 54 C-12.67 54.66 -12.34 55.32 -12 56 C-12.66 55.67 -13.32 55.34 -14 55 C-13.67 54.67 -13.34 54.34 -13 54 Z M-15 58 C-14.01 58.495 -14.01 58.495 -13 59 C-13.99 59.495 -13.99 59.495 -15 60 C-15 59.34 -15 58.68 -15 58 Z M-19 59 C-17 60 -17 60 -17 60 Z M-17 60 C-15 61 -15 61 -15 61 Z M-20 60 C-19.67 60.66 -19.34 61.32 -19 62 C-19.99 61.67 -20.98 61.34 -22 61 C-21.34 60.67 -20.68 60.34 -20 60 Z M-23 62 C-22.67 62.66 -22.34 63.32 -22 64 C-21.34 64.33 -20.68 64.66 -20 65 C-21.62 65.864 -23.246 66.716 -24.875 67.562 C-26.232 68.276 -26.232 68.276 -27.617 69.004 C-28.404 69.333 -29.19 69.661 -30 70 C-30.66 69.67 -31.32 69.34 -32 69 C-29.192 66.036 -26.817 63.555 -23 62 Z M-36 68 C-33 69 -33 69 -32 71 C-33.98 71.33 -35.96 71.66 -38 72 C-37.34 70.68 -36.68 69.36 -36 68 Z M-42 72 C-38 73 -38 73 -38 73 Z " fill="#BF3DF0" transform="translate(459,197)"/>
<path d="M0 0 C1.65 0 3.3 0 5 0 C5 19.14 5 38.28 5 58 C4.01 58.495 4.01 58.495 3 59 C3 39.86 3 20.72 3 1 C1.35 1.33 -0.3 1.66 -2 2 C-1.34 1.34 -0.68 0.68 0 0 Z M-2 3 C-8.437 4.922 -14.874 6.842 -21.312 8.762 C-23.496 9.413 -25.679 10.065 -27.863 10.717 C-34.014 12.553 -40.167 14.382 -46.322 16.203 C-48.732 16.92 -51.137 17.648 -53.542 18.381 C-55.42 18.943 -55.42 18.943 -57.336 19.516 C-58.903 19.992 -58.903 19.992 -60.501 20.478 C-63 21 -63 21 -66 20 C-53.22 15.866 -40.444 11.75 -27.539 8.023 C-24.497 7.144 -21.466 6.237 -18.438 5.312 C-16.959 4.872 -15.48 4.434 -14 4 C-13.261 3.782 -12.523 3.564 -11.762 3.34 C-8.087 2.326 -5.636 1.879 -2 3 Z M-69 20 C-67.515 20.99 -67.515 20.99 -66 22 C-66.99 22 -67.98 22 -69 22 C-69 21.34 -69 20.68 -69 20 Z " fill="#F7ABF9" transform="translate(422,97)"/>
<path d="M0 0 C14.823 -0.528 31.799 3.097 43.023 13.41 C43.789 14.274 43.789 14.274 44.57 15.156 C41.331 14.007 38.506 12.538 35.57 10.781 C20.072 2.036 2.618 1.724 -14.43 5.156 C-19.53 6.653 -24.257 8.56 -28.992 10.969 C-29.797 11.361 -30.601 11.752 -31.43 12.156 C-32.09 11.826 -32.75 11.496 -33.43 11.156 C-33.43 10.496 -33.43 9.836 -33.43 9.156 C-23.002 3.317 -11.824 0.76 0 0 Z M-36.43 11.156 C-34.43 12.156 -34.43 12.156 -34.43 12.156 Z M-39.43 13.156 C-37.43 14.156 -37.43 14.156 -37.43 14.156 Z M-42.43 15.156 C-40.43 16.156 -40.43 16.156 -40.43 16.156 Z M44.57 15.156 C46.57 16.156 46.57 16.156 46.57 16.156 Z M-48.43 20.156 C-47.44 20.651 -47.44 20.651 -46.43 21.156 C-47.42 21.651 -47.42 21.651 -48.43 22.156 C-48.43 21.496 -48.43 20.836 -48.43 20.156 Z " fill="#F37ADD" transform="translate(292.4296875,85.84375)"/>
<path d="M0 0 C0 3 0 3 -2 5.188 C-2.66 5.786 -3.32 6.384 -4 7 C-4.66 6.67 -5.32 6.34 -6 6 C-4.02 4.02 -2.04 2.04 0 0 Z M-48 1 C-45.03 1.495 -45.03 1.495 -42 2 C-42 2.66 -42 3.32 -42 4 C-41.434 4.121 -40.868 4.242 -40.285 4.367 C-39.552 4.535 -38.818 4.702 -38.062 4.875 C-37.332 5.037 -36.601 5.2 -35.848 5.367 C-34 6 -34 6 -33 8 C-30.582 8.927 -28.124 9.57 -25.629 10.262 C-23.498 10.86 -21.398 11.57 -19.312 12.312 C-15.104 13.186 -12.987 12.464 -9 11 C-10.583 15.274 -13.506 17.265 -17 20 C-17 19.34 -17 18.68 -17 18 C-17.99 18.33 -18.98 18.66 -20 19 C-21.91 18.275 -21.91 18.275 -24.062 17.086 C-24.855 16.657 -25.647 16.227 -26.464 15.785 C-27.719 15.087 -27.719 15.087 -29 14.375 C-30.714 13.446 -32.428 12.518 -34.145 11.594 C-35.391 10.921 -35.391 10.921 -36.663 10.234 C-41.011 7.938 -45.478 5.931 -50 4 C-49.34 3.67 -48.68 3.34 -48 3 C-48 2.34 -48 1.68 -48 1 Z " fill="#7603DA" transform="translate(383,188)"/>
<path d="M0 0 C0.66 0.99 1.32 1.98 2 3 C0.688 4.458 -0.625 5.917 -1.938 7.375 C-3.169 8.744 -3.169 8.744 -4.426 10.141 C-6.068 11.965 -7.711 13.788 -9.355 15.609 C-10.104 16.44 -10.853 17.27 -11.625 18.125 C-12.362 18.94 -13.1 19.754 -13.859 20.594 C-15.268 22.177 -16.655 23.781 -18.016 25.406 C-18.629 26.138 -19.243 26.871 -19.875 27.625 C-20.409 28.277 -20.942 28.93 -21.492 29.602 C-23 31 -23 31 -26 31 C-26.33 30.01 -26.66 29.02 -27 28 C-26.01 27.67 -25.02 27.34 -24 27 C-24.33 25.35 -24.66 23.7 -25 22 C-24.01 21.67 -23.02 21.34 -22 21 C-21.783 20.103 -21.783 20.103 -21.562 19.188 C-20.765 16.088 -19.535 14.934 -17 13 C-13.25 12.25 -13.25 12.25 -10 12 C-10.33 10.35 -10.66 8.7 -11 7 C-9.02 7 -7.04 7 -5 7 C-4.67 6.34 -4.34 5.68 -4 5 C-3.34 5 -2.68 5 -2 5 C-1.34 3.35 -0.68 1.7 0 0 Z " fill="#5C02BA" transform="translate(356,158)"/>
<path d="M0 0 C2.972 1.125 5.334 2.223 8 4 C8 4.66 8 5.32 8 6 C8.849 6.319 8.849 6.319 9.715 6.645 C16.123 10.445 21.93 19.905 24 27 C23.688 29.438 23.688 29.438 23 31 C20.821 28.821 19.805 26.877 18.438 24.125 C18.003 23.261 17.569 22.398 17.121 21.508 C16.144 19.322 15.483 17.336 15 15 C14.34 15 13.68 15 13 15 C11.738 13.574 11.738 13.574 10.312 11.688 C7.231 7.929 4.564 6.552 0 5 C0 3.333 0 1.667 0 0 Z " fill="#A214EB" transform="translate(435,167)"/>
<path d="M0 0 C-3.783 2.481 -7.365 3.885 -11.699 5.156 C-12.334 5.345 -12.969 5.533 -13.624 5.727 C-15.643 6.325 -17.665 6.913 -19.688 7.5 C-21.026 7.894 -22.363 8.288 -23.701 8.684 C-26.284 9.446 -28.868 10.202 -31.455 10.953 C-35.345 12.102 -39.206 13.327 -43.058 14.6 C-45 15 -45 15 -48 14 C-39.894 10.479 -31.741 7.464 -23.312 4.812 C-22.25 4.47 -21.187 4.128 -20.092 3.775 C-3.189 -1.595 -3.189 -1.595 0 0 Z " fill="#F749F3" transform="translate(361,118)"/>
<path d="M0 0 C1.125 3.75 1.125 3.75 0 6 C-0.66 5.67 -1.32 5.34 -2 5 C-1.34 3.35 -0.68 1.7 0 0 Z M-3 3 C-3 6 -3 6 -3 6 Z M-4 8 C-4 11 -4 11 -4 11 Z M-9 11 C-8.67 11.66 -8.34 12.32 -8 13 C-8.66 12.67 -9.32 12.34 -10 12 C-9.67 11.67 -9.34 11.34 -9 11 Z M-11 15 C-10.01 15.495 -10.01 15.495 -9 16 C-9.99 16.495 -9.99 16.495 -11 17 C-11 16.34 -11 15.68 -11 15 Z M-15 16 C-13 17 -13 17 -13 17 Z M-13 17 C-11 18 -11 18 -11 18 Z M-16 17 C-15.67 17.66 -15.34 18.32 -15 19 C-15.99 18.67 -16.98 18.34 -18 18 C-17.34 17.67 -16.68 17.34 -16 17 Z M-19 19 C-18.67 19.66 -18.34 20.32 -18 21 C-17.34 21.33 -16.68 21.66 -16 22 C-17.62 22.864 -19.246 23.716 -20.875 24.562 C-22.232 25.276 -22.232 25.276 -23.617 26.004 C-24.404 26.333 -25.19 26.661 -26 27 C-26.66 26.67 -27.32 26.34 -28 26 C-25.192 23.036 -22.817 20.555 -19 19 Z M-32 25 C-29 26 -29 26 -28 28 C-29.98 28.33 -31.96 28.66 -34 29 C-33.34 27.68 -32.68 26.36 -32 25 Z M-38 29 C-34 30 -34 30 -34 30 Z " fill="#C24BF5" transform="translate(455,240)"/>
<path d="M0 0 C0.881 2.967 1.004 5.361 0.812 8.438 C0.719 14.126 2.309 18.965 4.125 24.312 C5 27 5 27 5 29 C0.38 29 -4.24 29 -9 29 C-9 28.34 -9 27.68 -9 27 C-5.04 26.505 -5.04 26.505 -1 26 C-1.165 24.928 -1.33 23.855 -1.5 22.75 C-2.43 15.171 -3.166 7.122 0 0 Z " fill="#F050C5" transform="translate(225,242)"/>
<path d="M0 0 C0.66 0 1.32 0 2 0 C1.67 0.66 1.34 1.32 1 2 C0.67 1.34 0.34 0.68 0 0 Z M4 1 C4.66 1 5.32 1 6 1 C5.67 1.66 5.34 2.32 5 3 C4.67 2.34 4.34 1.68 4 1 Z M7 1 C7.66 1.66 8.32 2.32 9 3 C8.01 3 7.02 3 6 3 C6.33 2.34 6.66 1.68 7 1 Z M3 3 C3.99 3.33 4.98 3.66 6 4 C5.01 4 4.02 4 3 4 C3 3.67 3 3.34 3 3 Z M9 3 C13.266 6.296 16.26 9.257 19 14 C19 14.66 19 15.32 19 16 C18.34 16 17.68 16 17 16 C17.33 16.99 17.66 17.98 18 19 C17.01 19 16.02 19 15 19 C13.68 16.36 12.36 13.72 11 11 C10.34 11 9.68 11 9 11 C8.814 10.072 8.814 10.072 8.625 9.125 C8.128 6.809 8.128 6.809 6 5 C6.99 4.34 7.98 3.68 9 3 Z " fill="#F648F7" transform="translate(359,211)"/>
<path d="M0 0 C0.66 0 1.32 0 2 0 C1.67 0.66 1.34 1.32 1 2 C0.67 1.34 0.34 0.68 0 0 Z M-1 2 C1.97 2.495 1.97 2.495 5 3 C4.01 4.485 4.01 4.485 3 6 C2.34 6 1.68 6 1 6 C0.67 6.99 0.34 7.98 0 9 C-4.633 13.98 -9.791 17.324 -16 20 C-16.66 20 -17.32 20 -18 20 C-18 19.34 -18 18.68 -18 18 C-16.355 16.746 -16.355 16.746 -14.188 15.438 C-13.48 15.003 -12.772 14.569 -12.043 14.121 C-10 13 -10 13 -7 12 C-5.991 10.234 -5.991 10.234 -5 8 C-3.685 5.988 -2.354 3.986 -1 2 Z " fill="#CA2EF5" transform="translate(356,276)"/>
<path d="M0 0 C2 1 2 1 2 1 Z M-3 1 C-2.01 1 -1.02 1 0 1 C0.33 1.99 0.66 2.98 1 4 C-0.65 4.33 -2.3 4.66 -4 5 C-4 2 -4 2 -3 1 Z M-5 3 C-7.168 5.276 -9.327 7.33 -12 9 C-12.99 8.67 -13.98 8.34 -15 8 C-14.34 7.67 -13.68 7.34 -13 7 C-13 6.01 -13 5.02 -13 4 C-7.25 1.875 -7.25 1.875 -5 3 Z M-16 5 C-15.34 5.66 -14.68 6.32 -14 7 C-14.825 7.454 -15.65 7.907 -16.5 8.375 C-17.325 8.911 -18.15 9.447 -19 10 C-19 10.66 -19 11.32 -19 12 C-21.31 11.34 -23.62 10.68 -26 10 C-26 9.34 -26 8.68 -26 8 C-21.05 6.515 -21.05 6.515 -16 5 Z M-18 9 C-17.01 9.495 -17.01 9.495 -16 10 C-16.99 10.495 -16.99 10.495 -18 11 C-18 10.34 -18 9.68 -18 9 Z " fill="#DE3AFD" transform="translate(342,124)"/>
<path d="M0 0 C0.99 0.33 1.98 0.66 3 1 C2.01 1 1.02 1 0 1 C0 0.67 0 0.34 0 0 Z M3 2 C4.485 2.99 4.485 2.99 6 4 C5.01 4 4.02 4 3 4 C3 3.34 3 2.68 3 2 Z M7 5 C10.688 5.498 12.605 6.101 15 9 C11.644 8.401 9.622 7.154 7 5 Z M15 9 C16.625 9.141 18.25 9.288 19.875 9.438 C20.78 9.519 21.685 9.6 22.617 9.684 C25 10 25 10 27 11 C27 11.66 27 12.32 27 13 C27.722 13.124 28.444 13.248 29.188 13.375 C31.957 13.99 34.397 14.884 37 16 C33.161 17.28 31.511 16.467 27.688 15.25 C26.578 14.905 25.468 14.559 24.324 14.203 C21.064 13.023 18.065 11.614 15 10 C15 9.67 15 9.34 15 9 Z " fill="#F7ABF9" transform="translate(240,282)"/>
<path d="M0 0 C-1.438 2.876 -3.183 2.928 -6.188 3.938 C-9.484 5.076 -12.444 6.226 -15.562 7.812 C-16.367 8.204 -17.171 8.596 -18 9 C-18.66 8.67 -19.32 8.34 -20 8 C-20 7.34 -20 6.68 -20 6 C-13.37 2.534 -7.674 -0.365 0 0 Z M-23 8 C-21 9 -21 9 -21 9 Z M-26 10 C-24 11 -24 11 -24 11 Z M-29 12 C-27 13 -27 13 -27 13 Z M-35 17 C-34.01 17.495 -34.01 17.495 -33 18 C-33.99 18.495 -33.99 18.495 -35 19 C-35 18.34 -35 17.68 -35 17 Z " fill="#F487E4" transform="translate(279,89)"/>
<path d="M0 0 C2.972 1.125 5.334 2.223 8 4 C8 4.66 8 5.32 8 6 C8.619 6.248 9.238 6.495 9.875 6.75 C12.351 8.206 12.951 9.378 14 12 C9.882 10.547 6.578 8.489 3 6 C2.01 5.34 1.02 4.68 0 4 C0 2.68 0 1.36 0 0 Z " fill="#BD40F5" transform="translate(435,167)"/>
<path d="M0 0 C-4.181 2.787 -8.369 4.286 -13.125 5.75 C-13.84 5.983 -14.556 6.217 -15.293 6.457 C-20.631 8.123 -20.631 8.123 -24 7 C-3.673 -1.836 -3.673 -1.836 0 0 Z " fill="#F74AF2" transform="translate(337,125)"/>
<path d="M0 0 C0.66 0.33 1.32 0.66 2 1 C2 1.66 2 2.32 2 3 C-0.31 3.33 -2.62 3.66 -5 4 C-2 2 -2 2 0 2 C0 1.34 0 0.68 0 0 Z M-5 4 C-7.463 6.463 -9.274 6.768 -12.625 7.625 C-14.129 8.016 -14.129 8.016 -15.664 8.414 C-16.435 8.607 -17.206 8.801 -18 9 C-13.493 4.342 -11.533 3.879 -5 4 Z " fill="#B10293" transform="translate(351,116)"/>
<path d="M0 0 C0.66 0.33 1.32 0.66 2 1 C1.01 2.65 0.02 4.3 -1 6 C-1.66 5.67 -2.32 5.34 -3 5 C-2.01 3.35 -1.02 1.7 0 0 Z M-4 6 C-4 6.99 -4 7.98 -4 9 C-4.66 8.67 -5.32 8.34 -6 8 C-5.34 7.34 -4.68 6.68 -4 6 Z M-11 12 C-9 13 -9 13 -9 13 Z M-16 16 C-15.34 16.33 -14.68 16.66 -14 17 C-14.99 17 -15.98 17 -17 17 C-16.67 16.67 -16.34 16.34 -16 16 Z M-19 18 C-17 19 -17 19 -17 19 Z M-22 20 C-20 21 -20 21 -20 21 Z " fill="#F7ABF9" transform="translate(372,269)"/>
<path d="M0 0 C-0.33 0.99 -0.66 1.98 -1 3 C-3.64 3.33 -6.28 3.66 -9 4 C-9 3.01 -9 2.02 -9 1 C-2.25 -1.125 -2.25 -1.125 0 0 Z M-11 4 C-9 5 -9 5 -9 5 Z M-13 5 C-12.01 5.33 -11.02 5.66 -10 6 C-10.99 6 -11.98 6 -13 6 C-13 5.67 -13 5.34 -13 5 Z " fill="#E03CFD" transform="translate(358,121)"/>
<path d="M0 0 C3.648 3.883 4.585 6.712 5 12 C1.737 10.151 1.017 9.046 -0.312 5.438 C-1 2 -1 2 0 0 Z " fill="#D303A7" transform="translate(229,263)"/>
<path d="M0 0 C2.125 3.188 2.502 5.265 3 9 C2.01 8.67 1.02 8.34 0 8 C0 5.36 0 2.72 0 0 Z M3 9 C5 10 5 10 5 10 Z M5 10 C7 11 7 11 7 11 Z M7 11 C9 12 9 12 9 12 Z M9 12 C9.99 12.33 10.98 12.66 12 13 C11.01 13 10.02 13 9 13 C9 12.67 9 12.34 9 12 Z " fill="#ED6EF8" transform="translate(424,153)"/>
<path d="M0 0 C4.078 2.865 6.027 5.43 8 10 C4.634 8.557 2.335 6.835 0 4 C0 2.68 0 1.36 0 0 Z " fill="#EE4DC4" transform="translate(234,272)"/>
<path d="M0 0 C0.66 0 1.32 0 2 0 C2 0.66 2 1.32 2 2 C0.68 2.33 -0.64 2.66 -2 3 C-1.34 2.01 -0.68 1.02 0 0 Z M-6 1 C-3 2 -3 2 -2 4 C-3.98 4.33 -5.96 4.66 -8 5 C-7.34 3.68 -6.68 2.36 -6 1 Z M-12 5 C-8 6 -8 6 -8 6 Z " fill="#CC5BF1" transform="translate(429,264)"/>
<path d="M0 0 C0.33 0.66 0.66 1.32 1 2 C1.66 2.33 2.32 2.66 3 3 C0.188 4.562 0.188 4.562 -3 6 C-3.99 5.67 -4.98 5.34 -6 5 C-3.993 1.989 -3.161 1.37 0 0 Z " fill="#BC43F2" transform="translate(436,259)"/>
<path d="M0 0 C0.66 0 1.32 0 2 0 C2 0.66 2 1.32 2 2 C0.02 2.99 0.02 2.99 -2 4 C-1.34 2.68 -0.68 1.36 0 0 Z M-3 4 C-2.34 4.66 -1.68 5.32 -1 6 C-3.97 8.475 -3.97 8.475 -7 11 C-7 8 -7 8 -5 5.812 C-4.34 5.214 -3.68 4.616 -3 4 Z " fill="#F549F1" transform="translate(372,267)"/>
<path d="M0 0 C0.33 0 0.66 0 1 0 C1.125 3.375 1.125 3.375 1 7 C0.34 7.66 -0.32 8.32 -1 9 C-1.66 9 -2.32 9 -3 9 C-2.01 6.03 -1.02 3.06 0 0 Z " fill="#AC23EC" transform="translate(457,232)"/>
<path d="M0 0 C1.945 2.918 2.453 4.625 3 8 C2.01 8.495 2.01 8.495 1 9 C-1.125 3.375 -1.125 3.375 0 0 Z " fill="#D36BF1" transform="translate(456,189)"/>
<path d="M0 0 C2.64 0.99 5.28 1.98 8 3 C7.34 3.66 6.68 4.32 6 5 C3.69 4.34 1.38 3.68 -1 3 C-0.67 2.01 -0.34 1.02 0 0 Z " fill="#EA62F3" transform="translate(286,298)"/>
<path d="M0 0 C1.887 0.031 1.887 0.031 3.812 0.062 C3.483 0.722 3.152 1.382 2.812 2.062 C0.746 2.477 0.746 2.477 -1.75 2.688 C-2.576 2.762 -3.403 2.837 -4.254 2.914 C-5.211 2.988 -5.211 2.988 -6.188 3.062 C-6.517 2.403 -6.848 1.743 -7.188 1.062 C-4.437 0.146 -2.828 -0.046 0 0 Z " fill="#F377DB" transform="translate(285.1875,86.9375)"/>
<path d="M0 0 C2.602 -0.293 2.602 -0.293 5.625 -0.188 C7.129 -0.147 7.129 -0.147 8.664 -0.105 C9.435 -0.071 10.206 -0.036 11 0 C11.33 0.66 11.66 1.32 12 2 C7.38 2.33 2.76 2.66 -2 3 C-1.34 2.01 -0.68 1.02 0 0 Z " fill="#F161CE" transform="translate(290,86)"/>
<path d="M0 0 C0.66 0 1.32 0 2 0 C1.525 4.116 0.979 7.364 -1 11 C-1.027 9.354 -1.046 7.708 -1.062 6.062 C-1.074 5.146 -1.086 4.229 -1.098 3.285 C-1 1 -1 1 0 0 Z " fill="#C84FEF" transform="translate(459,226)"/>
<path d="M0 0 C2.12 2.615 4.131 5.196 6 8 C5.01 8.33 4.02 8.66 3 9 C3 8.01 3 7.02 3 6 C2.01 5.67 1.02 5.34 0 5 C0 3.35 0 1.7 0 0 Z " fill="#D105B0" transform="translate(268,197)"/>
<path d="M0 0 C6.75 0.875 6.75 0.875 9 2 C9 2.66 9 3.32 9 4 C4.545 3.01 4.545 3.01 0 2 C0 1.34 0 0.68 0 0 Z " fill="#F276DA" transform="translate(313,89)"/>
<path d="M0 0 C-0.33 0.66 -0.66 1.32 -1 2 C-3.322 2.407 -5.657 2.744 -8 3 C-8 2.34 -8 1.68 -8 1 C-5.291 -0.354 -2.991 -0.065 0 0 Z " fill="#F169D3" transform="translate(279,89)"/>
<path d="M0 0 C2 1 2 1 2 1 Z M-2 1 C-1.34 1 -0.68 1 0 1 C0.33 1.99 0.66 2.98 1 4 C-0.65 4.33 -2.3 4.66 -4 5 C-3.34 3.68 -2.68 2.36 -2 1 Z " fill="#DE3AFD" transform="translate(342,124)"/>
<path d="M0 0 C2.475 0.99 2.475 0.99 5 2 C5 2.33 5 2.66 5 3 C2.36 3 -0.28 3 -3 3 C-2.01 2.01 -1.02 1.02 0 0 Z " fill="#D105B0" transform="translate(315,91)"/>
<path d="M0 0 C2 2 2 2 2.125 4.625 C2.084 5.409 2.042 6.192 2 7 C0.438 5.75 0.438 5.75 -1 4 C-0.688 1.812 -0.688 1.812 0 0 Z " fill="#FC0C9C" transform="translate(240,224)"/>
<path d="M0 0 C1.804 2.759 2.013 3.89 1.625 7.25 C1.419 8.157 1.212 9.065 1 10 C0.67 10 0.34 10 0 10 C-0.749 6.337 -1.238 3.576 0 0 Z " fill="#C64EF7" transform="translate(459,197)"/>
<path d="M0 0 C3.875 1.75 3.875 1.75 5 4 C3.062 3.688 3.062 3.688 1 3 C0.67 2.01 0.34 1.02 0 0 Z " fill="#F74BEE" transform="translate(239,277)"/>
<path d="M0 0 C1.32 0.99 2.64 1.98 4 3 C3.67 3.99 3.34 4.98 3 6 C1.5 4.688 1.5 4.688 0 3 C0 2.01 0 1.02 0 0 Z " fill="#D51EB2" transform="translate(230,269)"/>
<path d="M0 0 C0.99 1.32 1.98 2.64 3 4 C2.01 4 1.02 4 0 4 C0 2.68 0 1.36 0 0 Z " fill="#AC1BF1" transform="translate(451,182)"/>
<path d="M0 0 C0.66 0.33 1.32 0.66 2 1 C1.67 1.99 1.34 2.98 1 4 C0.01 3.67 -0.98 3.34 -2 3 C-2 2.34 -2 1.68 -2 1 C-1.34 0.67 -0.68 0.34 0 0 Z " fill="#D933FD" transform="translate(356,120)"/>
<path d="M0 0 C0.66 0.33 1.32 0.66 2 1 C2 1.66 2 2.32 2 3 C1.01 2.67 0.02 2.34 -1 2 C-0.67 1.34 -0.34 0.68 0 0 Z " fill="#C33BF7" transform="translate(456,191)"/>
<path d="M0 0 C0.66 0.66 1.32 1.32 2 2 C1.01 2.33 0.02 2.66 -1 3 C-0.67 2.01 -0.34 1.02 0 0 Z " fill="#9510E4" transform="translate(332,189)"/>
</svg>